<svg width="14" height="14" viewBox="0 0 14 14" fill="none" xmlns="http://www.w3.org/2000/svg">
<path d="M4.08331 3.79169H2.33331V3.26669C2.33331 3.06252 2.47915 2.91669 2.68331 2.91669H3.73331C3.93748 2.91669 4.08331 3.06252 4.08331 3.26669V3.79169V3.79169Z" fill="#546E7A"/>
<path d="M11.6667 11.6667H2.33335C1.69169 11.6667 1.16669 11.1417 1.16669 10.5V6.41669H12.8334V10.5C12.8334 11.1417 12.3084 11.6667 11.6667 11.6667Z" fill="url(#paint0_linear_80_814)"/>
<path d="M3.70417 6.41669C3.5875 6.79585 3.5 7.17502 3.5 7.58335C3.5 9.50835 5.075 11.0834 7 11.0834C8.925 11.0834 10.5 9.50835 10.5 7.58335C10.5 7.17502 10.4125 6.79585 10.2958 6.41669H3.70417Z" fill="url(#paint1_linear_80_814)"/>
<path d="M2.33335 3.5H11.6667C12.3084 3.5 12.8334 4.025 12.8334 4.66667V6.41667H1.16669V4.66667C1.16669 4.025 1.69169 3.5 2.33335 3.5Z" fill="#78909C"/>
<path d="M9.8875 3.82086H4.14166L5.13333 2.33336C5.25 2.15836 5.425 2.07086 5.62916 2.07086H8.42916C8.63333 2.07086 8.80833 2.15836 8.925 2.33336L9.8875 3.82086Z" fill="#78909C"/>
<path d="M10.2958 6.41665C9.82916 5.04581 8.51666 4.08331 7 4.08331C5.48333 4.08331 4.17083 5.04581 3.70416 6.41665H10.2958Z" fill="#455A64"/>
<path d="M7 10.2083C8.44975 10.2083 9.625 9.03306 9.625 7.58331C9.625 6.13357 8.44975 4.95831 7 4.95831C5.55025 4.95831 4.375 6.13357 4.375 7.58331C4.375 9.03306 5.55025 10.2083 7 10.2083Z" fill="#42A5F5"/>
<path d="M8.45832 6.70832C8.10832 6.29998 7.58332 6.06665 7.05832 6.06665C6.53332 6.06665 6.00832 6.29998 5.65832 6.70832C5.51248 6.85415 5.54165 7.08748 5.68748 7.23332C5.83332 7.37915 6.06665 7.34998 6.21248 7.20415C6.64998 6.70832 7.46665 6.70832 7.90415 7.20415C7.99165 7.29165 8.07915 7.32082 8.19582 7.32082C8.28332 7.32082 8.37082 7.29165 8.45832 7.23332C8.57498 7.11665 8.60415 6.85415 8.45832 6.70832V6.70832Z" fill="#0E3255"/>
<path d="M10.5 4.375H11.9583V5.54167H10.5V4.375Z" fill="#0E3255"/>
<defs>
<linearGradient id="paint0_linear_80_814" x1="7.00002" y1="6.41669" x2="7.00002" y2="11.6667" gradientUnits="userSpaceOnUse">
<stop stop-color="#0D015B"/>
<stop offset="1" stop-color="#8EEBFB"/>
</linearGradient>
<linearGradient id="paint1_linear_80_814" x1="7" y1="6.41669" x2="7" y2="11.0834" gradientUnits="userSpaceOnUse">
<stop stop-color="#0D015B"/>
<stop offset="1" stop-color="#0D015B"/>
</linearGradient>
</defs>
</svg>
