<svg width="20" height="20" viewBox="0 0 20 20" fill="none" xmlns="http://www.w3.org/2000/svg">
<g clip-path="url(#clip0_410_3644)">
<path d="M18.2499 15.628L18.061 15.4613C17.5251 14.9839 17.0561 14.4364 16.6666 13.8336C16.2411 13.0016 15.9861 12.0931 15.9166 11.1613V8.41688C15.9202 6.95334 15.3893 5.53881 14.4236 4.43909C13.4579 3.33937 12.1239 2.63014 10.6721 2.44466V1.72799C10.6721 1.53129 10.594 1.34265 10.4549 1.20356C10.3158 1.06447 10.1271 0.986328 9.93045 0.986328C9.73374 0.986328 9.5451 1.06447 9.40601 1.20356C9.26692 1.34265 9.18878 1.53129 9.18878 1.72799V2.45577C7.75003 2.65462 6.4321 3.36814 5.47907 4.46417C4.52605 5.56019 4.00252 6.96446 4.00545 8.41688V11.1613C3.93587 12.0931 3.68088 13.0016 3.25545 13.8336C2.8726 14.4349 2.41111 14.9823 1.88322 15.4613L1.69434 15.628V17.1947H18.2499V15.628Z" fill="white"/>
<path d="M8.51123 17.7773C8.55995 18.1295 8.73445 18.4521 9.0025 18.6857C9.27055 18.9192 9.61406 19.0478 9.96956 19.0478C10.3251 19.0478 10.6686 18.9192 10.9366 18.6857C11.2047 18.4521 11.3792 18.1295 11.4279 17.7773H8.51123Z" fill="white"/>
</g>
<defs>
<clipPath id="clip0_410_3644">
<rect width="20" height="20" fill="white"/>
</clipPath>
</defs>
</svg>
