<svg width="18" height="18" viewBox="0 0 18 18" fill="none" xmlns="http://www.w3.org/2000/svg">
<path d="M9.83317 15.4997C8.20611 15.4993 6.62593 14.9547 5.34425 13.9523L1.31459 17.982L0.0184193 16.6858L4.04809 12.6562C3.04525 11.3744 2.50023 9.79383 2.49984 8.16634C2.49984 4.12292 5.78975 0.833008 9.83317 0.833008C13.8766 0.833008 17.1665 4.12292 17.1665 8.16634C17.1665 12.2098 13.8766 15.4997 9.83317 15.4997ZM9.83317 2.66634C6.79992 2.66634 4.33317 5.13309 4.33317 8.16634C4.33317 11.1996 6.79992 13.6663 9.83317 13.6663C12.8664 13.6663 15.3332 11.1996 15.3332 8.16634C15.3332 5.13309 12.8664 2.66634 9.83317 2.66634Z" fill="black" fill-opacity="0.5"/>
</svg>
